<?xml version="1.0" encoding="utf-8" standalone="no"?>
<!DOCTYPE svg PUBLIC "-//W3C//DTD SVG 1.1//EN"
  "http://www.w3.org/Graphics/SVG/1.1/DTD/svg11.dtd">
<svg xmlns:xlink="http://www.w3.org/1999/xlink" width="864pt" height="288pt" viewBox="0 0 864 288" xmlns="http://www.w3.org/2000/svg" version="1.1">
 <metadata>
  <rdf:RDF xmlns:dc="http://purl.org/dc/elements/1.1/" xmlns:cc="http://creativecommons.org/ns#" xmlns:rdf="http://www.w3.org/1999/02/22-rdf-syntax-ns#">
   <cc:Work>
    <dc:type rdf:resource="http://purl.org/dc/dcmitype/StillImage"/>
    <dc:date>2026-04-30T15:08:10.701521</dc:date>
    <dc:format>image/svg+xml</dc:format>
    <dc:creator>
     <cc:Agent>
      <dc:title>Matplotlib v3.10.8, https://matplotlib.org/</dc:title>
     </cc:Agent>
    </dc:creator>
   </cc:Work>
  </rdf:RDF>
 </metadata>
 <defs>
  <style type="text/css">*{stroke-linejoin: round; stroke-linecap: butt}</style>
 </defs>
 <g id="figure_1">
  <g id="patch_1">
   <path d="M 0 288 
L 864 288 
L 864 0 
L 0 0 
z
" style="fill: #ffffff"/>
  </g>
  <g id="axes_1">
   <g id="patch_2">
    <path d="M 17.28 282.24 
L 291.022574 282.24 
L 291.022574 5.76 
L 17.28 5.76 
z
" style="fill: #ffffff"/>
   </g>
   <g id="matplotlib.axis_1"/>
   <g id="matplotlib.axis_2"/>
   <g id="text_1">
    <!-- ORBIT -->
    <g style="fill: #2e7d31" transform="translate(33.704554 126.2749) scale(0.56 -0.56)">
     <defs>
      <path id="DejaVuSans-Bold-4f" d="M 2719 3878 
Q 2169 3878 1866 3472 
Q 1563 3066 1563 2328 
Q 1563 1594 1866 1187 
Q 2169 781 2719 781 
Q 3272 781 3575 1187 
Q 3878 1594 3878 2328 
Q 3878 3066 3575 3472 
Q 3272 3878 2719 3878 
z
M 2719 4750 
Q 3844 4750 4481 4106 
Q 5119 3463 5119 2328 
Q 5119 1197 4481 553 
Q 3844 -91 2719 -91 
Q 1597 -91 958 553 
Q 319 1197 319 2328 
Q 319 3463 958 4106 
Q 1597 4750 2719 4750 
z
" transform="scale(0.015625)"/>
      <path id="DejaVuSans-Bold-52" d="M 2297 2597 
Q 2675 2597 2839 2737 
Q 3003 2878 3003 3200 
Q 3003 3519 2839 3656 
Q 2675 3794 2297 3794 
L 1791 3794 
L 1791 2597 
L 2297 2597 
z
M 1791 1766 
L 1791 0 
L 588 0 
L 588 4666 
L 2425 4666 
Q 3347 4666 3776 4356 
Q 4206 4047 4206 3378 
Q 4206 2916 3982 2619 
Q 3759 2322 3309 2181 
Q 3556 2125 3751 1926 
Q 3947 1728 4147 1325 
L 4800 0 
L 3519 0 
L 2950 1159 
Q 2778 1509 2601 1637 
Q 2425 1766 2131 1766 
L 1791 1766 
z
" transform="scale(0.015625)"/>
      <path id="DejaVuSans-Bold-42" d="M 2456 2859 
Q 2741 2859 2887 2984 
Q 3034 3109 3034 3353 
Q 3034 3594 2887 3720 
Q 2741 3847 2456 3847 
L 1791 3847 
L 1791 2859 
L 2456 2859 
z
M 2497 819 
Q 2859 819 3042 972 
Q 3225 1125 3225 1434 
Q 3225 1738 3044 1889 
Q 2863 2041 2497 2041 
L 1791 2041 
L 1791 819 
L 2497 819 
z
M 3616 2497 
Q 4003 2384 4215 2081 
Q 4428 1778 4428 1338 
Q 4428 663 3972 331 
Q 3516 0 2584 0 
L 588 0 
L 588 4666 
L 2394 4666 
Q 3366 4666 3802 4372 
Q 4238 4078 4238 3431 
Q 4238 3091 4078 2852 
Q 3919 2613 3616 2497 
z
" transform="scale(0.015625)"/>
      <path id="DejaVuSans-Bold-49" d="M 588 4666 
L 1791 4666 
L 1791 0 
L 588 0 
L 588 4666 
z
" transform="scale(0.015625)"/>
      <path id="DejaVuSans-Bold-54" d="M 31 4666 
L 4331 4666 
L 4331 3756 
L 2784 3756 
L 2784 0 
L 1581 0 
L 1581 3756 
L 31 3756 
L 31 4666 
z
" transform="scale(0.015625)"/>
     </defs>
     <use xlink:href="#DejaVuSans-Bold-4f"/>
     <use xlink:href="#DejaVuSans-Bold-52" transform="translate(85.009766 0)"/>
     <use xlink:href="#DejaVuSans-Bold-42" transform="translate(162.011719 0)"/>
     <use xlink:href="#DejaVuSans-Bold-49" transform="translate(238.232422 0)"/>
     <use xlink:href="#DejaVuSans-Bold-54" transform="translate(275.439453 0)"/>
    </g>
   </g>
   <g id="text_2">
    <!-- Orthogonal Rotation for Biological -->
    <g style="fill: #808080" transform="translate(33.704554 195.432656) scale(0.12 -0.12)">
     <defs>
      <path id="DejaVuSans-Oblique-4f" d="M 2919 4238 
Q 2400 4238 2003 3986 
Q 1606 3734 1313 3219 
Q 1125 2891 1026 2522 
Q 928 2153 928 1778 
Q 928 1128 1239 775 
Q 1550 422 2119 422 
Q 2631 422 3032 676 
Q 3434 931 3719 1434 
Q 3909 1772 4009 2142 
Q 4109 2513 4109 2881 
Q 4109 3528 3796 3883 
Q 3484 4238 2919 4238 
z
M 2100 -91 
Q 1241 -91 748 418 
Q 256 928 256 1813 
Q 256 2319 448 2847 
Q 641 3375 978 3788 
Q 1375 4272 1862 4511 
Q 2350 4750 2938 4750 
Q 3794 4750 4287 4245 
Q 4781 3741 4781 2869 
Q 4781 2331 4593 1812 
Q 4406 1294 4056 872 
Q 3656 384 3173 146 
Q 2691 -91 2100 -91 
z
" transform="scale(0.015625)"/>
      <path id="DejaVuSans-Oblique-72" d="M 2853 2969 
Q 2766 3016 2653 3041 
Q 2541 3066 2413 3066 
Q 1953 3066 1609 2717 
Q 1266 2369 1153 1784 
L 800 0 
L 225 0 
L 909 3500 
L 1484 3500 
L 1375 2956 
Q 1603 3259 1920 3421 
Q 2238 3584 2597 3584 
Q 2691 3584 2781 3573 
Q 2872 3563 2963 3538 
L 2853 2969 
z
" transform="scale(0.015625)"/>
      <path id="DejaVuSans-Oblique-74" d="M 2706 3500 
L 2619 3053 
L 1472 3053 
L 1100 1153 
Q 1081 1047 1072 975 
Q 1063 903 1063 863 
Q 1063 663 1183 572 
Q 1303 481 1569 481 
L 2150 481 
L 2053 0 
L 1503 0 
Q 991 0 739 200 
Q 488 400 488 806 
Q 488 878 497 964 
Q 506 1050 525 1153 
L 897 3053 
L 409 3053 
L 500 3500 
L 978 3500 
L 1172 4494 
L 1747 4494 
L 1556 3500 
L 2706 3500 
z
" transform="scale(0.015625)"/>
      <path id="DejaVuSans-Oblique-68" d="M 3566 2113 
L 3156 0 
L 2578 0 
L 2988 2091 
Q 3016 2238 3031 2350 
Q 3047 2463 3047 2528 
Q 3047 2791 2881 2937 
Q 2716 3084 2419 3084 
Q 1956 3084 1617 2771 
Q 1278 2459 1178 1941 
L 800 0 
L 225 0 
L 1172 4863 
L 1747 4863 
L 1375 2950 
Q 1594 3244 1934 3414 
Q 2275 3584 2650 3584 
Q 3113 3584 3367 3334 
Q 3622 3084 3622 2631 
Q 3622 2519 3608 2391 
Q 3594 2263 3566 2113 
z
" transform="scale(0.015625)"/>
      <path id="DejaVuSans-Oblique-6f" d="M 1625 -91 
Q 1009 -91 651 289 
Q 294 669 294 1325 
Q 294 1706 417 2101 
Q 541 2497 738 2766 
Q 1047 3184 1428 3384 
Q 1809 3584 2291 3584 
Q 2888 3584 3255 3212 
Q 3622 2841 3622 2241 
Q 3622 1825 3500 1412 
Q 3378 1000 3181 728 
Q 2875 309 2494 109 
Q 2113 -91 1625 -91 
z
M 891 1344 
Q 891 869 1089 633 
Q 1288 397 1691 397 
Q 2269 397 2648 901 
Q 3028 1406 3028 2181 
Q 3028 2634 2825 2865 
Q 2622 3097 2228 3097 
Q 1903 3097 1650 2945 
Q 1397 2794 1197 2484 
Q 1050 2253 970 1956 
Q 891 1659 891 1344 
z
" transform="scale(0.015625)"/>
      <path id="DejaVuSans-Oblique-67" d="M 3816 3500 
L 3219 434 
Q 3047 -456 2561 -893 
Q 2075 -1331 1253 -1331 
Q 950 -1331 690 -1286 
Q 431 -1241 206 -1147 
L 313 -588 
Q 525 -725 762 -790 
Q 1000 -856 1269 -856 
Q 1816 -856 2167 -557 
Q 2519 -259 2631 300 
L 2681 563 
Q 2441 288 2122 144 
Q 1803 0 1434 0 
Q 903 0 598 351 
Q 294 703 294 1319 
Q 294 1803 478 2267 
Q 663 2731 997 3091 
Q 1219 3328 1514 3456 
Q 1809 3584 2131 3584 
Q 2484 3584 2746 3420 
Q 3009 3256 3138 2956 
L 3238 3500 
L 3816 3500 
z
M 2950 2216 
Q 2950 2641 2750 2872 
Q 2550 3103 2181 3103 
Q 1953 3103 1747 3012 
Q 1541 2922 1394 2759 
Q 1156 2491 1023 2127 
Q 891 1763 891 1375 
Q 891 944 1092 712 
Q 1294 481 1672 481 
Q 2219 481 2584 976 
Q 2950 1472 2950 2216 
z
" transform="scale(0.015625)"/>
      <path id="DejaVuSans-Oblique-6e" d="M 3566 2113 
L 3156 0 
L 2578 0 
L 2988 2091 
Q 3016 2238 3031 2350 
Q 3047 2463 3047 2528 
Q 3047 2791 2881 2937 
Q 2716 3084 2419 3084 
Q 1956 3084 1622 2776 
Q 1288 2469 1184 1941 
L 800 0 
L 225 0 
L 903 3500 
L 1478 3500 
L 1363 2950 
Q 1603 3253 1940 3418 
Q 2278 3584 2650 3584 
Q 3113 3584 3367 3334 
Q 3622 3084 3622 2631 
Q 3622 2519 3608 2391 
Q 3594 2263 3566 2113 
z
" transform="scale(0.015625)"/>
      <path id="DejaVuSans-Oblique-61" d="M 3438 1997 
L 3047 0 
L 2472 0 
L 2578 531 
Q 2325 219 2001 64 
Q 1678 -91 1281 -91 
Q 834 -91 548 182 
Q 263 456 263 884 
Q 263 1497 752 1853 
Q 1241 2209 2100 2209 
L 2900 2209 
L 2931 2363 
Q 2938 2388 2941 2417 
Q 2944 2447 2944 2509 
Q 2944 2788 2717 2942 
Q 2491 3097 2081 3097 
Q 1800 3097 1504 3025 
Q 1209 2953 897 2809 
L 997 3341 
Q 1322 3463 1633 3523 
Q 1944 3584 2234 3584 
Q 2853 3584 3176 3315 
Q 3500 3047 3500 2534 
Q 3500 2431 3484 2292 
Q 3469 2153 3438 1997 
z
M 2816 1759 
L 2241 1759 
Q 1534 1759 1195 1570 
Q 856 1381 856 984 
Q 856 709 1029 553 
Q 1203 397 1509 397 
Q 1978 397 2328 733 
Q 2678 1069 2791 1631 
L 2816 1759 
z
" transform="scale(0.015625)"/>
      <path id="DejaVuSans-Oblique-6c" d="M 1172 4863 
L 1747 4863 
L 800 0 
L 225 0 
L 1172 4863 
z
" transform="scale(0.015625)"/>
      <path id="DejaVuSans-Oblique-20" transform="scale(0.015625)"/>
      <path id="DejaVuSans-Oblique-52" d="M 1613 4147 
L 1294 2491 
L 2106 2491 
Q 2584 2491 2879 2755 
Q 3175 3019 3175 3444 
Q 3175 3784 2976 3965 
Q 2778 4147 2406 4147 
L 1613 4147 
z
M 2772 2241 
Q 2972 2194 3105 2009 
Q 3238 1825 3413 1275 
L 3809 0 
L 3144 0 
L 2778 1197 
Q 2638 1659 2453 1815 
Q 2269 1972 1888 1972 
L 1191 1972 
L 806 0 
L 172 0 
L 1081 4666 
L 2503 4666 
Q 3150 4666 3495 4373 
Q 3841 4081 3841 3531 
Q 3841 3044 3547 2687 
Q 3253 2331 2772 2241 
z
" transform="scale(0.015625)"/>
      <path id="DejaVuSans-Oblique-69" d="M 1172 4863 
L 1747 4863 
L 1606 4134 
L 1031 4134 
L 1172 4863 
z
M 909 3500 
L 1484 3500 
L 800 0 
L 225 0 
L 909 3500 
z
" transform="scale(0.015625)"/>
      <path id="DejaVuSans-Oblique-66" d="M 3059 4863 
L 2969 4384 
L 2419 4384 
Q 2106 4384 1964 4261 
Q 1822 4138 1753 3809 
L 1691 3500 
L 2638 3500 
L 2553 3053 
L 1606 3053 
L 1013 0 
L 434 0 
L 1031 3053 
L 481 3053 
L 563 3500 
L 1113 3500 
L 1159 3744 
Q 1278 4363 1576 4613 
Q 1875 4863 2516 4863 
L 3059 4863 
z
" transform="scale(0.015625)"/>
      <path id="DejaVuSans-Oblique-42" d="M 1081 4666 
L 2694 4666 
Q 3350 4666 3675 4422 
Q 4000 4178 4000 3688 
Q 4000 3238 3720 2911 
Q 3441 2584 2988 2516 
Q 3375 2428 3569 2181 
Q 3763 1934 3763 1522 
Q 3763 819 3242 409 
Q 2722 0 1819 0 
L 172 0 
L 1081 4666 
z
M 1234 2228 
L 903 519 
L 1919 519 
Q 2491 519 2800 781 
Q 3109 1044 3109 1522 
Q 3109 1891 2904 2059 
Q 2700 2228 2247 2228 
L 1234 2228 
z
M 1606 4147 
L 1331 2741 
L 2272 2741 
Q 2775 2741 3058 2959 
Q 3341 3178 3341 3566 
Q 3341 3869 3150 4008 
Q 2959 4147 2541 4147 
L 1606 4147 
z
" transform="scale(0.015625)"/>
      <path id="DejaVuSans-Oblique-63" d="M 3431 3366 
L 3316 2797 
Q 3109 2947 2876 3022 
Q 2644 3097 2394 3097 
Q 2119 3097 1870 3000 
Q 1622 2903 1453 2725 
Q 1184 2453 1037 2087 
Q 891 1722 891 1331 
Q 891 859 1127 628 
Q 1363 397 1844 397 
Q 2081 397 2348 469 
Q 2616 541 2906 684 
L 2797 116 
Q 2547 13 2283 -39 
Q 2019 -91 1741 -91 
Q 1044 -91 669 257 
Q 294 606 294 1253 
Q 294 1797 489 2255 
Q 684 2713 1069 3078 
Q 1331 3328 1684 3456 
Q 2038 3584 2456 3584 
Q 2700 3584 2940 3529 
Q 3181 3475 3431 3366 
z
" transform="scale(0.015625)"/>
     </defs>
     <use xlink:href="#DejaVuSans-Oblique-4f"/>
     <use xlink:href="#DejaVuSans-Oblique-72" transform="translate(78.710938 0)"/>
     <use xlink:href="#DejaVuSans-Oblique-74" transform="translate(119.824219 0)"/>
     <use xlink:href="#DejaVuSans-Oblique-68" transform="translate(159.033203 0)"/>
     <use xlink:href="#DejaVuSans-Oblique-6f" transform="translate(222.412109 0)"/>
     <use xlink:href="#DejaVuSans-Oblique-67" transform="translate(283.59375 0)"/>
     <use xlink:href="#DejaVuSans-Oblique-6f" transform="translate(347.070312 0)"/>
     <use xlink:href="#DejaVuSans-Oblique-6e" transform="translate(408.251953 0)"/>
     <use xlink:href="#DejaVuSans-Oblique-61" transform="translate(471.630859 0)"/>
     <use xlink:href="#DejaVuSans-Oblique-6c" transform="translate(532.910156 0)"/>
     <use xlink:href="#DejaVuSans-Oblique-20" transform="translate(560.693359 0)"/>
     <use xlink:href="#DejaVuSans-Oblique-52" transform="translate(592.480469 0)"/>
     <use xlink:href="#DejaVuSans-Oblique-6f" transform="translate(661.962891 0)"/>
     <use xlink:href="#DejaVuSans-Oblique-74" transform="translate(723.144531 0)"/>
     <use xlink:href="#DejaVuSans-Oblique-61" transform="translate(762.353516 0)"/>
     <use xlink:href="#DejaVuSans-Oblique-74" transform="translate(823.632812 0)"/>
     <use xlink:href="#DejaVuSans-Oblique-69" transform="translate(862.841797 0)"/>
     <use xlink:href="#DejaVuSans-Oblique-6f" transform="translate(890.625 0)"/>
     <use xlink:href="#DejaVuSans-Oblique-6e" transform="translate(951.806641 0)"/>
     <use xlink:href="#DejaVuSans-Oblique-20" transform="translate(1015.185547 0)"/>
     <use xlink:href="#DejaVuSans-Oblique-66" transform="translate(1046.972656 0)"/>
     <use xlink:href="#DejaVuSans-Oblique-6f" transform="translate(1082.177734 0)"/>
     <use xlink:href="#DejaVuSans-Oblique-72" transform="translate(1143.359375 0)"/>
     <use xlink:href="#DejaVuSans-Oblique-20" transform="translate(1184.472656 0)"/>
     <use xlink:href="#DejaVuSans-Oblique-42" transform="translate(1216.259766 0)"/>
     <use xlink:href="#DejaVuSans-Oblique-69" transform="translate(1284.863281 0)"/>
     <use xlink:href="#DejaVuSans-Oblique-6f" transform="translate(1312.646484 0)"/>
     <use xlink:href="#DejaVuSans-Oblique-6c" transform="translate(1373.828125 0)"/>
     <use xlink:href="#DejaVuSans-Oblique-6f" transform="translate(1401.611328 0)"/>
     <use xlink:href="#DejaVuSans-Oblique-67" transform="translate(1462.792969 0)"/>
     <use xlink:href="#DejaVuSans-Oblique-69" transform="translate(1526.269531 0)"/>
     <use xlink:href="#DejaVuSans-Oblique-63" transform="translate(1554.052734 0)"/>
     <use xlink:href="#DejaVuSans-Oblique-61" transform="translate(1609.033203 0)"/>
     <use xlink:href="#DejaVuSans-Oblique-6c" transform="translate(1670.3125 0)"/>
    </g>
    <!-- Inter-species Transfer -->
    <g style="fill: #808080" transform="translate(33.704554 209.781844) scale(0.12 -0.12)">
     <defs>
      <path id="DejaVuSans-Oblique-49" d="M 1081 4666 
L 1716 4666 
L 806 0 
L 172 0 
L 1081 4666 
z
" transform="scale(0.015625)"/>
      <path id="DejaVuSans-Oblique-65" d="M 3078 2063 
Q 3088 2113 3092 2166 
Q 3097 2219 3097 2272 
Q 3097 2653 2873 2875 
Q 2650 3097 2266 3097 
Q 1838 3097 1509 2826 
Q 1181 2556 1013 2059 
L 3078 2063 
z
M 3578 1613 
L 903 1613 
Q 884 1494 878 1425 
Q 872 1356 872 1306 
Q 872 872 1139 634 
Q 1406 397 1894 397 
Q 2269 397 2603 481 
Q 2938 566 3225 728 
L 3116 159 
Q 2806 34 2476 -28 
Q 2147 -91 1806 -91 
Q 1078 -91 686 257 
Q 294 606 294 1247 
Q 294 1794 489 2264 
Q 684 2734 1063 3103 
Q 1306 3334 1642 3459 
Q 1978 3584 2356 3584 
Q 2950 3584 3301 3228 
Q 3653 2872 3653 2272 
Q 3653 2128 3634 1964 
Q 3616 1800 3578 1613 
z
" transform="scale(0.015625)"/>
      <path id="DejaVuSans-Oblique-2d" d="M 391 2009 
L 2075 2009 
L 1978 1497 
L 288 1497 
L 391 2009 
z
" transform="scale(0.015625)"/>
      <path id="DejaVuSans-Oblique-73" d="M 3200 3397 
L 3091 2853 
Q 2863 2978 2609 3040 
Q 2356 3103 2088 3103 
Q 1634 3103 1373 2948 
Q 1113 2794 1113 2528 
Q 1113 2219 1719 2053 
Q 1766 2041 1788 2034 
L 1972 1978 
Q 2547 1819 2739 1644 
Q 2931 1469 2931 1166 
Q 2931 609 2489 259 
Q 2047 -91 1331 -91 
Q 1053 -91 747 -37 
Q 441 16 72 128 
L 184 722 
Q 500 559 806 475 
Q 1113 391 1394 391 
Q 1816 391 2080 572 
Q 2344 753 2344 1031 
Q 2344 1331 1650 1516 
L 1591 1531 
L 1394 1581 
Q 956 1697 753 1886 
Q 550 2075 550 2369 
Q 550 2928 970 3256 
Q 1391 3584 2113 3584 
Q 2397 3584 2667 3537 
Q 2938 3491 3200 3397 
z
" transform="scale(0.015625)"/>
      <path id="DejaVuSans-Oblique-70" d="M 3175 2156 
Q 3175 2616 2975 2859 
Q 2775 3103 2400 3103 
Q 2144 3103 1911 2972 
Q 1678 2841 1497 2591 
Q 1319 2344 1212 1994 
Q 1106 1644 1106 1300 
Q 1106 863 1306 627 
Q 1506 391 1875 391 
Q 2147 391 2380 519 
Q 2613 647 2778 891 
Q 2956 1147 3065 1494 
Q 3175 1841 3175 2156 
z
M 1394 2969 
Q 1625 3272 1939 3428 
Q 2253 3584 2638 3584 
Q 3175 3584 3472 3232 
Q 3769 2881 3769 2247 
Q 3769 1728 3584 1258 
Q 3400 788 3053 416 
Q 2822 169 2531 39 
Q 2241 -91 1919 -91 
Q 1547 -91 1294 64 
Q 1041 219 916 525 
L 556 -1331 
L -19 -1331 
L 922 3500 
L 1497 3500 
L 1394 2969 
z
" transform="scale(0.015625)"/>
      <path id="DejaVuSans-Oblique-54" d="M 378 4666 
L 4325 4666 
L 4225 4134 
L 2559 4134 
L 1759 0 
L 1125 0 
L 1925 4134 
L 275 4134 
L 378 4666 
z
" transform="scale(0.015625)"/>
     </defs>
     <use xlink:href="#DejaVuSans-Oblique-49"/>
     <use xlink:href="#DejaVuSans-Oblique-6e" transform="translate(29.492188 0)"/>
     <use xlink:href="#DejaVuSans-Oblique-74" transform="translate(92.871094 0)"/>
     <use xlink:href="#DejaVuSans-Oblique-65" transform="translate(132.080078 0)"/>
     <use xlink:href="#DejaVuSans-Oblique-72" transform="translate(193.603516 0)"/>
     <use xlink:href="#DejaVuSans-Oblique-2d" transform="translate(229.216797 0)"/>
     <use xlink:href="#DejaVuSans-Oblique-73" transform="translate(265.300781 0)"/>
     <use xlink:href="#DejaVuSans-Oblique-70" transform="translate(317.400391 0)"/>
     <use xlink:href="#DejaVuSans-Oblique-65" transform="translate(380.876953 0)"/>
     <use xlink:href="#DejaVuSans-Oblique-63" transform="translate(442.400391 0)"/>
     <use xlink:href="#DejaVuSans-Oblique-69" transform="translate(497.380859 0)"/>
     <use xlink:href="#DejaVuSans-Oblique-65" transform="translate(525.164062 0)"/>
     <use xlink:href="#DejaVuSans-Oblique-73" transform="translate(586.6875 0)"/>
     <use xlink:href="#DejaVuSans-Oblique-20" transform="translate(638.787109 0)"/>
     <use xlink:href="#DejaVuSans-Oblique-54" transform="translate(670.574219 0)"/>
     <use xlink:href="#DejaVuSans-Oblique-72" transform="translate(723.908203 0)"/>
     <use xlink:href="#DejaVuSans-Oblique-61" transform="translate(765.021484 0)"/>
     <use xlink:href="#DejaVuSans-Oblique-6e" transform="translate(826.300781 0)"/>
     <use xlink:href="#DejaVuSans-Oblique-73" transform="translate(889.679688 0)"/>
     <use xlink:href="#DejaVuSans-Oblique-66" transform="translate(941.779297 0)"/>
     <use xlink:href="#DejaVuSans-Oblique-65" transform="translate(976.984375 0)"/>
     <use xlink:href="#DejaVuSans-Oblique-72" transform="translate(1038.507812 0)"/>
    </g>
   </g>
  </g>
  <g id="axes_2">
   <g id="patch_3">
    <path d="M 299.234851 280.871287 
L 846.72 280.871287 
L 846.72 7.128713 
L 299.234851 7.128713 
z
" style="fill: #ffffff"/>
   </g>
   <g id="line2d_1">
    <path d="M 356.864867 183.620636 
L 367.724795 179.032908 
L 378.584722 174.68166 
L 389.44465 170.566894 
L 400.304577 166.688608 
L 411.164505 163.046803 
L 422.024433 159.641479 
L 432.88436 156.472636 
L 443.744288 153.540274 
L 454.604215 150.844392 
L 465.464143 148.384991 
L 476.32407 146.162072 
L 487.183998 144.175632 
L 498.043926 142.425674 
L 508.903853 140.912197 
L 519.763781 139.6352 
L 530.623708 138.594685 
L 541.483636 137.79065 
L 552.343563 137.223096 
L 563.203491 136.892023 
L 574.063418 136.79743 
L 584.923346 136.939319 
L 595.783274 137.317688 
L 606.643201 137.932538 
L 617.503129 138.783869 
L 628.363056 139.871681 
L 639.222984 141.195974 
L 650.082911 142.756747 
L 660.942839 144.554002 
L 671.802767 146.587737 
L 682.662694 148.857953 
L 693.522622 151.36465 
L 704.382549 154.107828 
L 715.242477 157.087486 
L 726.102404 160.303625 
L 736.962332 163.756246 
L 747.82226 167.445347 
L 758.682187 171.370929 
L 769.542115 175.532991 
L 780.402042 179.931535 
L 789.089984 183.620636 
L 789.089984 183.620636 
" clip-path="url(#p9efdff07e5)" style="fill: none; stroke-dasharray: 4.8,3.6; stroke-dashoffset: 0; stroke: #cccccc; stroke-width: 1.2"/>
   </g>
   <g id="matplotlib.axis_3"/>
   <g id="matplotlib.axis_4"/>
   <g id="PathCollection_1">
    <defs>
     <path id="med9f505408" d="M 0 3.24037 
C 0.859356 3.24037 1.683631 2.898944 2.291288 2.291288 
C 2.898944 1.683631 3.24037 0.859356 3.24037 0 
C 3.24037 -0.859356 2.898944 -1.683631 2.291288 -2.291288 
C 1.683631 -2.898944 0.859356 -3.24037 0 -3.24037 
C -0.859356 -3.24037 -1.683631 -2.898944 -2.291288 -2.291288 
C -2.898944 -1.683631 -3.24037 -0.859356 -3.24037 0 
C -3.24037 0.859356 -2.898944 1.683631 -2.291288 2.291288 
C -1.683631 2.898944 -0.859356 3.24037 0 3.24037 
z
"/>
    </defs>
    <g clip-path="url(#p9efdff07e5)">
     <use xlink:href="#med9f505408" x="461.702272" y="146.251857" style="fill: #959caa; fill-opacity: 0.45"/>
     <use xlink:href="#med9f505408" x="481.770012" y="145.148196" style="fill: #959caa; fill-opacity: 0.45"/>
     <use xlink:href="#med9f505408" x="487.688935" y="139.208055" style="fill: #959caa; fill-opacity: 0.45"/>
     <use xlink:href="#med9f505408" x="449.015969" y="140.438704" style="fill: #959caa; fill-opacity: 0.45"/>
     <use xlink:href="#med9f505408" x="484.737257" y="134.958559" style="fill: #959caa; fill-opacity: 0.45"/>
     <use xlink:href="#med9f505408" x="447.9794" y="163.984182" style="fill: #959caa; fill-opacity: 0.45"/>
     <use xlink:href="#med9f505408" x="472.017018" y="159.576255" style="fill: #959caa; fill-opacity: 0.45"/>
     <use xlink:href="#med9f505408" x="458.290716" y="142.069677" style="fill: #959caa; fill-opacity: 0.45"/>
     <use xlink:href="#med9f505408" x="505.848329" y="102.00709" style="fill: #959caa; fill-opacity: 0.45"/>
     <use xlink:href="#med9f505408" x="529.657107" y="87.677555" style="fill: #959caa; fill-opacity: 0.45"/>
     <use xlink:href="#med9f505408" x="516.817016" y="81.786022" style="fill: #959caa; fill-opacity: 0.45"/>
     <use xlink:href="#med9f505408" x="496.01675" y="99.260899" style="fill: #959caa; fill-opacity: 0.45"/>
     <use xlink:href="#med9f505408" x="462.711109" y="155.771215" style="fill: #959caa; fill-opacity: 0.45"/>
     <use xlink:href="#med9f505408" x="538.15646" y="59.00474" style="fill: #959caa; fill-opacity: 0.45"/>
     <use xlink:href="#med9f505408" x="465.013419" y="145.826896" style="fill: #959caa; fill-opacity: 0.45"/>
     <use xlink:href="#med9f505408" x="511.048828" y="95.244517" style="fill: #959caa; fill-opacity: 0.45"/>
     <use xlink:href="#med9f505408" x="499.787173" y="118.312703" style="fill: #959caa; fill-opacity: 0.45"/>
     <use xlink:href="#med9f505408" x="445.083325" y="194.180953" style="fill: #959caa; fill-opacity: 0.45"/>
     <use xlink:href="#med9f505408" x="456.361943" y="140.494636" style="fill: #959caa; fill-opacity: 0.45"/>
     <use xlink:href="#med9f505408" x="481.762455" y="127.647575" style="fill: #959caa; fill-opacity: 0.45"/>
     <use xlink:href="#med9f505408" x="461.278707" y="152.122009" style="fill: #959caa; fill-opacity: 0.45"/>
     <use xlink:href="#med9f505408" x="496.960828" y="102.337867" style="fill: #959caa; fill-opacity: 0.45"/>
    </g>
   </g>
   <g id="PathCollection_2">
    <defs>
     <path id="m31f8730f46" d="M 0 3.24037 
C 0.859356 3.24037 1.683631 2.898944 2.291288 2.291288 
C 2.898944 1.683631 3.24037 0.859356 3.24037 0 
C 3.24037 -0.859356 2.898944 -1.683631 2.291288 -2.291288 
C 1.683631 -2.898944 0.859356 -3.24037 0 -3.24037 
C -0.859356 -3.24037 -1.683631 -2.898944 -2.291288 -2.291288 
C -2.898944 -1.683631 -3.24037 -0.859356 -3.24037 0 
C -3.24037 0.859356 -2.898944 1.683631 -2.291288 2.291288 
C -1.683631 2.898944 -0.859356 3.24037 0 3.24037 
z
"/>
    </defs>
    <g clip-path="url(#p9efdff07e5)">
     <use xlink:href="#m31f8730f46" x="569.14235" y="135.948878" style="fill: #b08b7f; fill-opacity: 0.45"/>
     <use xlink:href="#m31f8730f46" x="587.260171" y="127.249636" style="fill: #b08b7f; fill-opacity: 0.45"/>
     <use xlink:href="#m31f8730f46" x="590.455348" y="119.496589" style="fill: #b08b7f; fill-opacity: 0.45"/>
     <use xlink:href="#m31f8730f46" x="555.197136" y="135.433063" style="fill: #b08b7f; fill-opacity: 0.45"/>
     <use xlink:href="#m31f8730f46" x="586.102142" y="116.700124" style="fill: #b08b7f; fill-opacity: 0.45"/>
     <use xlink:href="#m31f8730f46" x="563.249935" y="157.582926" style="fill: #b08b7f; fill-opacity: 0.45"/>
     <use xlink:href="#m31f8730f46" x="583.770958" y="144.311734" style="fill: #b08b7f; fill-opacity: 0.45"/>
     <use xlink:href="#m31f8730f46" x="564.390032" y="133.390594" style="fill: #b08b7f; fill-opacity: 0.45"/>
     <use xlink:href="#m31f8730f46" x="592.996248" y="78.178079" style="fill: #b08b7f; fill-opacity: 0.45"/>
     <use xlink:href="#m31f8730f46" x="609.509016" y="55.82809" style="fill: #b08b7f; fill-opacity: 0.45"/>
     <use xlink:href="#m31f8730f46" x="595.391726" y="55.298713" style="fill: #b08b7f; fill-opacity: 0.45"/>
     <use xlink:href="#m31f8730f46" x="582.862132" y="79.403312" style="fill: #b08b7f; fill-opacity: 0.45"/>
     <use xlink:href="#m31f8730f46" x="573.717293" y="144.357553" style="fill: #b08b7f; fill-opacity: 0.45"/>
     <use xlink:href="#m31f8730f46" x="606.388782" y="26.085302" style="fill: #b08b7f; fill-opacity: 0.45"/>
     <use xlink:href="#m31f8730f46" x="572.038824" y="134.289144" style="fill: #b08b7f; fill-opacity: 0.45"/>
     <use xlink:href="#m31f8730f46" x="595.212959" y="69.940132" style="fill: #b08b7f; fill-opacity: 0.45"/>
     <use xlink:href="#m31f8730f46" x="593.636358" y="95.562006" style="fill: #b08b7f; fill-opacity: 0.45"/>
     <use xlink:href="#m31f8730f46" x="572.130115" y="186.589385" style="fill: #b08b7f; fill-opacity: 0.45"/>
     <use xlink:href="#m31f8730f46" x="562.005335" y="132.673555" style="fill: #b08b7f; fill-opacity: 0.45"/>
     <use xlink:href="#m31f8730f46" x="580.555991" y="111.084063" style="fill: #b08b7f; fill-opacity: 0.45"/>
     <use xlink:href="#m31f8730f46" x="570.997436" y="141.534283" style="fill: #b08b7f; fill-opacity: 0.45"/>
     <use xlink:href="#m31f8730f46" x="584.911851" y="81.884777" style="fill: #b08b7f; fill-opacity: 0.45"/>
    </g>
   </g>
   <g id="PathCollection_3">
    <defs>
     <path id="mc56b2206e4" d="M 0 3.24037 
C 0.859356 3.24037 1.683631 2.898944 2.291288 2.291288 
C 2.898944 1.683631 3.24037 0.859356 3.24037 0 
C 3.24037 -0.859356 2.898944 -1.683631 2.291288 -2.291288 
C 1.683631 -2.898944 0.859356 -3.24037 0 -3.24037 
C -0.859356 -3.24037 -1.683631 -2.898944 -2.291288 -2.291288 
C -2.898944 -1.683631 -3.24037 -0.859356 -3.24037 0 
C -3.24037 0.859356 -2.898944 1.683631 -2.291288 2.291288 
C -1.683631 2.898944 -0.859356 3.24037 0 3.24037 
z
"/>
    </defs>
    <g clip-path="url(#p9efdff07e5)">
     <use xlink:href="#mc56b2206e4" x="677.166282" y="149.187098" style="fill: #cc7955; fill-opacity: 0.45"/>
     <use xlink:href="#mc56b2206e4" x="690.575911" y="134.216656" style="fill: #cc7955; fill-opacity: 0.45"/>
     <use xlink:href="#mc56b2206e4" x="690.560907" y="125.831032" style="fill: #cc7955; fill-opacity: 0.45"/>
     <use xlink:href="#mc56b2206e4" x="664.085191" y="154.047148" style="fill: #cc7955; fill-opacity: 0.45"/>
     <use xlink:href="#mc56b2206e4" x="685.468908" y="124.913336" style="fill: #cc7955; fill-opacity: 0.45"/>
     <use xlink:href="#mc56b2206e4" x="680.001393" y="171.429281" style="fill: #cc7955; fill-opacity: 0.45"/>
     <use xlink:href="#mc56b2206e4" x="693.881681" y="151.315243" style="fill: #cc7955; fill-opacity: 0.45"/>
     <use xlink:href="#mc56b2206e4" x="671.7967" y="148.642184" style="fill: #cc7955; fill-opacity: 0.45"/>
     <use xlink:href="#mc56b2206e4" x="677.096484" y="86.685347" style="fill: #cc7955; fill-opacity: 0.45"/>
     <use xlink:href="#mc56b2206e4" x="683.79932" y="59.717486" style="fill: #cc7955; fill-opacity: 0.45"/>
     <use xlink:href="#mc56b2206e4" x="670.554062" y="64.630859" style="fill: #cc7955; fill-opacity: 0.45"/>
     <use xlink:href="#mc56b2206e4" x="668.202657" y="91.695472" style="fill: #cc7955; fill-opacity: 0.45"/>
     <use xlink:href="#mc56b2206e4" x="684.610839" y="155.204945" style="fill: #cc7955; fill-opacity: 0.45"/>
     <use xlink:href="#mc56b2206e4" x="669.534529" y="33.432795" style="fill: #cc7955; fill-opacity: 0.45"/>
     <use xlink:href="#mc56b2206e4" x="679.207124" y="146.54527" style="fill: #cc7955; fill-opacity: 0.45"/>
     <use xlink:href="#mc56b2206e4" x="675.991931" y="78.226177" style="fill: #cc7955; fill-opacity: 0.45"/>
     <use xlink:href="#mc56b2206e4" x="684.340408" y="102.501041" style="fill: #cc7955; fill-opacity: 0.45"/>
     <use xlink:href="#mc56b2206e4" x="699.305901" y="194.829457" style="fill: #cc7955; fill-opacity: 0.45"/>
     <use xlink:href="#mc56b2206e4" x="669.319129" y="148.892311" style="fill: #cc7955; fill-opacity: 0.45"/>
     <use xlink:href="#mc56b2206e4" x="678.195759" y="121.847192" style="fill: #cc7955; fill-opacity: 0.45"/>
     <use xlink:href="#mc56b2206e4" x="681.017601" y="153.637428" style="fill: #cc7955; fill-opacity: 0.45"/>
     <use xlink:href="#mc56b2206e4" x="671.045966" y="93.203654" style="fill: #cc7955; fill-opacity: 0.45"/>
    </g>
   </g>
   <g id="PathCollection_4">
    <defs>
     <path id="m999aa89d55" d="M 0 3.24037 
C 0.859356 3.24037 1.683631 2.898944 2.291288 2.291288 
C 2.898944 1.683631 3.24037 0.859356 3.24037 0 
C 3.24037 -0.859356 2.898944 -1.683631 2.291288 -2.291288 
C 1.683631 -2.898944 0.859356 -3.24037 0 -3.24037 
C -0.859356 -3.24037 -1.683631 -2.898944 -2.291288 -2.291288 
C -2.898944 -1.683631 -3.24037 -0.859356 -3.24037 0 
C -3.24037 0.859356 -2.898944 1.683631 -2.291288 2.291288 
C -1.683631 2.898944 -0.859356 3.24037 0 3.24037 
z
" style="stroke: #ffffff; stroke-opacity: 0.95; stroke-width: 0.8"/>
    </defs>
    <g clip-path="url(#p9efdff07e5)">
     <use xlink:href="#m999aa89d55" x="354.75224" y="180.309647" style="fill: #7aaed4; fill-opacity: 0.95; stroke: #ffffff; stroke-opacity: 0.95; stroke-width: 0.8"/>
     <use xlink:href="#m999aa89d55" x="373.714767" y="186.969588" style="fill: #7aaed4; fill-opacity: 0.95; stroke: #ffffff; stroke-opacity: 0.95; stroke-width: 0.8"/>
     <use xlink:href="#m999aa89d55" x="381.456331" y="183.746687" style="fill: #7aaed4; fill-opacity: 0.95; stroke: #ffffff; stroke-opacity: 0.95; stroke-width: 0.8"/>
     <use xlink:href="#m999aa89d55" x="345.256221" y="170.084155" style="fill: #7aaed4; fill-opacity: 0.95; stroke: #ffffff; stroke-opacity: 0.95; stroke-width: 0.8"/>
     <use xlink:href="#m999aa89d55" x="380.355549" y="178.691106" style="fill: #7aaed4; fill-opacity: 0.95; stroke: #ffffff; stroke-opacity: 0.95; stroke-width: 0.8"/>
     <use xlink:href="#m999aa89d55" x="335.288091" y="191.440662" style="fill: #7aaed4; fill-opacity: 0.95; stroke: #ffffff; stroke-opacity: 0.95; stroke-width: 0.8"/>
     <use xlink:href="#m999aa89d55" x="359.182796" y="196.567067" style="fill: #7aaed4; fill-opacity: 0.95; stroke: #ffffff; stroke-opacity: 0.95; stroke-width: 0.8"/>
     <use xlink:href="#m999aa89d55" x="353.200824" y="175.14027" style="fill: #7aaed4; fill-opacity: 0.95; stroke: #ffffff; stroke-opacity: 0.95; stroke-width: 0.8"/>
     <use xlink:href="#m999aa89d55" x="412.469617" y="156.326776" style="fill: #7aaed4; fill-opacity: 0.95; stroke: #ffffff; stroke-opacity: 0.95; stroke-width: 0.8"/>
     <use xlink:href="#m999aa89d55" x="439.949736" y="152.199237" style="fill: #7aaed4; fill-opacity: 0.95; stroke: #ffffff; stroke-opacity: 0.95; stroke-width: 0.8"/>
     <use xlink:href="#m999aa89d55" x="430.341631" y="141.84248" style="fill: #7aaed4; fill-opacity: 0.95; stroke: #ffffff; stroke-opacity: 0.95; stroke-width: 0.8"/>
     <use xlink:href="#m999aa89d55" x="404.437344" y="150.027244" style="fill: #7aaed4; fill-opacity: 0.95; stroke: #ffffff; stroke-opacity: 0.95; stroke-width: 0.8"/>
     <use xlink:href="#m999aa89d55" x="352.041383" y="189.490451" style="fill: #7aaed4; fill-opacity: 0.95; stroke: #ffffff; stroke-opacity: 0.95; stroke-width: 0.8"/>
     <use xlink:href="#m999aa89d55" x="458.774725" y="128.961572" style="fill: #7aaed4; fill-opacity: 0.95; stroke: #ffffff; stroke-opacity: 0.95; stroke-width: 0.8"/>
     <use xlink:href="#m999aa89d55" x="357.973966" y="181.184154" style="fill: #7aaed4; fill-opacity: 0.95; stroke: #ffffff; stroke-opacity: 0.95; stroke-width: 0.8"/>
     <use xlink:href="#m999aa89d55" x="419.862176" y="152.069119" style="fill: #7aaed4; fill-opacity: 0.95; stroke: #ffffff; stroke-opacity: 0.95; stroke-width: 0.8"/>
     <use xlink:href="#m999aa89d55" x="400.629951" y="169.071694" style="fill: #7aaed4; fill-opacity: 0.95; stroke: #ffffff; stroke-opacity: 0.95; stroke-width: 0.8"/>
     <use xlink:href="#m999aa89d55" x="321.056663" y="218.230561" style="fill: #7aaed4; fill-opacity: 0.95; stroke: #ffffff; stroke-opacity: 0.95; stroke-width: 0.8"/>
     <use xlink:href="#m999aa89d55" x="352.021611" y="172.947012" style="fill: #7aaed4; fill-opacity: 0.95; stroke: #ffffff; stroke-opacity: 0.95; stroke-width: 0.8"/>
     <use xlink:href="#m999aa89d55" x="380.404983" y="170.79823" style="fill: #7aaed4; fill-opacity: 0.95; stroke: #ffffff; stroke-opacity: 0.95; stroke-width: 0.8"/>
     <use xlink:href="#m999aa89d55" x="352.114506" y="185.570868" style="fill: #7aaed4; fill-opacity: 0.95; stroke: #ffffff; stroke-opacity: 0.95; stroke-width: 0.8"/>
     <use xlink:href="#m999aa89d55" x="404.132054" y="153.231275" style="fill: #7aaed4; fill-opacity: 0.95; stroke: #ffffff; stroke-opacity: 0.95; stroke-width: 0.8"/>
    </g>
   </g>
   <g id="PathCollection_5">
    <defs>
     <path id="mcfaa01a758" d="M 0 3.24037 
C 0.859356 3.24037 1.683631 2.898944 2.291288 2.291288 
C 2.898944 1.683631 3.24037 0.859356 3.24037 0 
C 3.24037 -0.859356 2.898944 -1.683631 2.291288 -2.291288 
C 1.683631 -2.898944 0.859356 -3.24037 0 -3.24037 
C -0.859356 -3.24037 -1.683631 -2.898944 -2.291288 -2.291288 
C -2.898944 -1.683631 -3.24037 -0.859356 -3.24037 0 
C -3.24037 0.859356 -2.898944 1.683631 -2.291288 2.291288 
C -1.683631 2.898944 -0.859356 3.24037 0 3.24037 
z
" style="stroke: #ffffff; stroke-opacity: 0.95; stroke-width: 0.8"/>
    </defs>
    <g clip-path="url(#p9efdff07e5)">
     <use xlink:href="#mcfaa01a758" x="785.778995" y="185.733263" style="fill: #e7672a; fill-opacity: 0.95; stroke: #ffffff; stroke-opacity: 0.95; stroke-width: 0.8"/>
     <use xlink:href="#mcfaa01a758" x="792.438936" y="166.770736" style="fill: #e7672a; fill-opacity: 0.95; stroke: #ffffff; stroke-opacity: 0.95; stroke-width: 0.8"/>
     <use xlink:href="#mcfaa01a758" x="789.216035" y="159.029171" style="fill: #e7672a; fill-opacity: 0.95; stroke: #ffffff; stroke-opacity: 0.95; stroke-width: 0.8"/>
     <use xlink:href="#mcfaa01a758" x="775.553503" y="195.229282" style="fill: #e7672a; fill-opacity: 0.95; stroke: #ffffff; stroke-opacity: 0.95; stroke-width: 0.8"/>
     <use xlink:href="#mcfaa01a758" x="784.160455" y="160.129954" style="fill: #e7672a; fill-opacity: 0.95; stroke: #ffffff; stroke-opacity: 0.95; stroke-width: 0.8"/>
     <use xlink:href="#mcfaa01a758" x="796.910011" y="205.197411" style="fill: #e7672a; fill-opacity: 0.95; stroke: #ffffff; stroke-opacity: 0.95; stroke-width: 0.8"/>
     <use xlink:href="#mcfaa01a758" x="802.036415" y="181.302707" style="fill: #e7672a; fill-opacity: 0.95; stroke: #ffffff; stroke-opacity: 0.95; stroke-width: 0.8"/>
     <use xlink:href="#mcfaa01a758" x="780.609618" y="187.284679" style="fill: #e7672a; fill-opacity: 0.95; stroke: #ffffff; stroke-opacity: 0.95; stroke-width: 0.8"/>
     <use xlink:href="#mcfaa01a758" x="761.796125" y="128.015886" style="fill: #e7672a; fill-opacity: 0.95; stroke: #ffffff; stroke-opacity: 0.95; stroke-width: 0.8"/>
     <use xlink:href="#mcfaa01a758" x="757.668585" y="100.535767" style="fill: #e7672a; fill-opacity: 0.95; stroke: #ffffff; stroke-opacity: 0.95; stroke-width: 0.8"/>
     <use xlink:href="#mcfaa01a758" x="747.311828" y="110.143872" style="fill: #e7672a; fill-opacity: 0.95; stroke: #ffffff; stroke-opacity: 0.95; stroke-width: 0.8"/>
     <use xlink:href="#mcfaa01a758" x="755.496592" y="136.048159" style="fill: #e7672a; fill-opacity: 0.95; stroke: #ffffff; stroke-opacity: 0.95; stroke-width: 0.8"/>
     <use xlink:href="#mcfaa01a758" x="794.959799" y="188.44412" style="fill: #e7672a; fill-opacity: 0.95; stroke: #ffffff; stroke-opacity: 0.95; stroke-width: 0.8"/>
     <use xlink:href="#mcfaa01a758" x="734.43092" y="81.710778" style="fill: #e7672a; fill-opacity: 0.95; stroke: #ffffff; stroke-opacity: 0.95; stroke-width: 0.8"/>
     <use xlink:href="#mcfaa01a758" x="786.653503" y="182.511537" style="fill: #e7672a; fill-opacity: 0.95; stroke: #ffffff; stroke-opacity: 0.95; stroke-width: 0.8"/>
     <use xlink:href="#mcfaa01a758" x="757.538467" y="120.623326" style="fill: #e7672a; fill-opacity: 0.95; stroke: #ffffff; stroke-opacity: 0.95; stroke-width: 0.8"/>
     <use xlink:href="#mcfaa01a758" x="774.541043" y="139.855552" style="fill: #e7672a; fill-opacity: 0.95; stroke: #ffffff; stroke-opacity: 0.95; stroke-width: 0.8"/>
     <use xlink:href="#mcfaa01a758" x="823.69991" y="219.42884" style="fill: #e7672a; fill-opacity: 0.95; stroke: #ffffff; stroke-opacity: 0.95; stroke-width: 0.8"/>
     <use xlink:href="#mcfaa01a758" x="778.416361" y="188.463891" style="fill: #e7672a; fill-opacity: 0.95; stroke: #ffffff; stroke-opacity: 0.95; stroke-width: 0.8"/>
     <use xlink:href="#mcfaa01a758" x="776.267579" y="160.08052" style="fill: #e7672a; fill-opacity: 0.95; stroke: #ffffff; stroke-opacity: 0.95; stroke-width: 0.8"/>
     <use xlink:href="#mcfaa01a758" x="791.040217" y="188.370996" style="fill: #e7672a; fill-opacity: 0.95; stroke: #ffffff; stroke-opacity: 0.95; stroke-width: 0.8"/>
     <use xlink:href="#mcfaa01a758" x="758.700623" y="136.353449" style="fill: #e7672a; fill-opacity: 0.95; stroke: #ffffff; stroke-opacity: 0.95; stroke-width: 0.8"/>
    </g>
   </g>
   <g id="patch_4">
    <path d="M 401.804777 81.742787 
Q 572.976441 -19.940013 741.841159 80.371215 
" clip-path="url(#p9efdff07e5)" style="fill: none; stroke: #2e7d31; stroke-width: 2.4; stroke-linecap: round"/>
    <path d="M 737.00605 72.846474 
L 741.841159 80.371215 
L 732.920301 79.724457 
z
" clip-path="url(#p9efdff07e5)" style="fill: #2e7d31; stroke: #2e7d31; stroke-width: 2.4; stroke-linecap: round"/>
   </g>
   <g id="text_3">
    <!-- $\mathbf{R^{*}}$ -->
    <g style="fill: #2e7d31" transform="translate(559.997426 38.41247) scale(0.22 -0.22)">
     <defs>
      <path id="DejaVuSans-Bold-2a" d="M 3219 3803 
L 2188 3263 
L 3219 2719 
L 2981 2278 
L 1941 2853 
L 1941 1778 
L 1409 1778 
L 1409 2853 
L 366 2278 
L 128 2719 
L 1172 3263 
L 128 3803 
L 366 4244 
L 1409 3675 
L 1409 4750 
L 1941 4750 
L 1941 3675 
L 2981 4244 
L 3219 3803 
z
" transform="scale(0.015625)"/>
     </defs>
     <use xlink:href="#DejaVuSans-Bold-52" transform="translate(0 0.765625)"/>
     <use xlink:href="#DejaVuSans-Bold-2a" transform="translate(77.958984 39.046875) scale(0.7)"/>
    </g>
   </g>
  </g>
 </g>
 <defs>
  <clipPath id="p9efdff07e5">
   <rect x="299.234851" y="7.128713" width="547.485149" height="273.742574"/>
  </clipPath>
 </defs>
</svg>
